<svg width="44" height="44" viewBox="0 0 44 44" fill="none" xmlns="http://www.w3.org/2000/svg">
<rect opacity="0.8" x="0.5" y="0.5" width="43" height="43" rx="21.5" stroke="#C3D4E9" stroke-opacity="0.4"/>
<path d="M26.25 32.5C27.2165 32.5 28 31.7165 28 30.75C28 29.7835 27.2165 29 26.25 29C25.2835 29 24.5 29.7835 24.5 30.75C24.5 31.7165 25.2835 32.5 26.25 32.5Z" fill="#596780"/>
<path d="M18.25 32.5C19.2165 32.5 20 31.7165 20 30.75C20 29.7835 19.2165 29 18.25 29C17.2835 29 16.5 29.7835 16.5 30.75C16.5 31.7165 17.2835 32.5 18.25 32.5Z" fill="#596780"/>
<path d="M14.84 13.94L14.64 16.39C14.6 16.86 14.97 17.25 15.44 17.25H30.75C31.17 17.25 31.52 16.93 31.55 16.51C31.68 14.74 30.33 13.3 28.56 13.3H16.27C16.17 12.86 15.97 12.44 15.66 12.09C15.16 11.56 14.46 11.25 13.74 11.25H12C11.59 11.25 11.25 11.59 11.25 12C11.25 12.41 11.59 12.75 12 12.75H13.74C14.05 12.75 14.34 12.88 14.55 13.1C14.76 13.33 14.86 13.63 14.84 13.94Z" fill="#596780"/>
<path d="M30.5101 18.75H15.1701C14.7501 18.75 14.4101 19.07 14.3701 19.48L14.0101 23.83C13.8701 25.54 15.2101 27 16.9201 27H28.0401C29.5401 27 30.8601 25.77 30.9701 24.27L31.3001 19.6C31.3401 19.14 30.9801 18.75 30.5101 18.75Z" fill="#596780"/>
</svg>
